<svg width="40" height="40" viewBox="0 0 40 40" fill="none" xmlns="http://www.w3.org/2000/svg">
<path d="M19.9584 32C25.9533 32 30.9168 27.0365 30.9168 21.0416C30.9168 15.7558 27.0599 11.2757 22.0319 10.2873V8.76174C22.0319 7.99895 21.5055 7.79482 20.9253 8.21382L17.4981 10.6096C17.0039 10.9534 16.9932 11.4691 17.4981 11.8236L20.9146 14.2302C21.5055 14.6599 22.0319 14.4558 22.0319 13.6823V12.146C26.093 13.0699 29.0797 16.6905 29.0797 21.0416C29.0797 26.1125 25.0293 30.1736 19.9584 30.1736C14.8875 30.1736 10.8157 26.1125 10.8264 21.0416C10.8371 17.9904 12.3198 15.2938 14.6081 13.6608C15.0486 13.3277 15.1883 12.8228 14.9197 12.3716C14.6511 11.9311 14.0602 11.8129 13.5875 12.1782C10.8264 14.1872 9 17.4318 9 21.0416C9 27.0365 13.9743 32 19.9584 32ZM22.5583 25.5646C24.331 25.5646 25.5021 23.8779 25.5021 21.2994C25.5021 18.6995 24.331 16.9913 22.5583 16.9913C20.7749 16.9913 19.6039 18.6995 19.6039 21.2994C19.6039 23.8779 20.7749 25.5646 22.5583 25.5646ZM16.9502 25.4357C17.3692 25.4357 17.6485 25.1456 17.6485 24.6944V17.9367C17.6485 17.4103 17.3585 17.0772 16.875 17.0772C16.5849 17.0772 16.3808 17.1739 15.994 17.4318L14.5007 18.4309C14.2643 18.6028 14.1462 18.7962 14.1462 19.054C14.1462 19.4086 14.4362 19.7094 14.78 19.7094C14.9734 19.7094 15.0808 19.6664 15.2957 19.516L16.2949 18.7855V24.6944C16.2949 25.1349 16.5527 25.4357 16.9502 25.4357ZM22.5583 24.2647C21.6022 24.2647 21.0005 23.1366 21.0005 21.2994C21.0005 19.4301 21.5914 18.2913 22.5583 18.2913C23.5145 18.2913 24.0947 19.4193 24.0947 21.2994C24.0947 23.1366 23.5038 24.2647 22.5583 24.2647Z" fill="white"/>
</svg>
