<svg width="20" height="21" viewBox="0 0 20 21" fill="none" xmlns="http://www.w3.org/2000/svg">
<path d="M10.9476 15.159C10.9476 15.6177 10.5066 16 9.99404 16C9.48153 16 9.05244 15.6177 9.05244 15.159V4.03003L9.12396 2.39181L8.31347 3.16724L6.51371 4.93652C6.34684 5.11126 6.08462 5.19864 5.85816 5.19864C5.35757 5.19864 5 4.87099 5 4.43413C5 4.19386 5.09535 4.01911 5.27414 3.85529L9.31466 0.294881C9.55304 0.0764505 9.75566 0 9.99404 0C10.2443 0 10.447 0.0764505 10.6853 0.294881L14.7139 3.85529C14.8927 4.01911 15 4.19386 15 4.43413C15 4.87099 14.6186 5.19864 14.1299 5.19864C13.8915 5.19864 13.6532 5.11126 13.4863 4.93652L11.6746 3.16724L10.876 2.40273L10.9476 4.03003V15.159Z" fill="white"/>
<path d="M2 6C0.895431 6 0 6.89543 0 8V19C0 20.1046 0.895431 21 2 21H18C19.1046 21 20 20.1046 20 19V8C20 6.89543 19.1046 6 18 6H14.95V8H18V19H2V8H4.6V6H2Z" fill="white"/>
</svg>
