<svg width="24" height="19" viewBox="0 0 24 19" fill="none" xmlns="http://www.w3.org/2000/svg">
<path d="M11.2475 18.4013C11.9298 18.4013 12.4214 17.8997 12.4214 17.2274V1.22408C12.4214 0.551839 11.9298 0 11.2274 0C10.7358 0 10.4047 0.210702 9.87291 0.712375L5.42809 4.89632C5.35786 4.95652 5.27759 4.98662 5.17726 4.98662H2.17726C0.762542 4.98662 0 5.7592 0 7.27425V11.1572C0 12.6622 0.762542 13.4348 2.17726 13.4348H5.17726C5.27759 13.4348 5.35786 13.4649 5.42809 13.5251L9.87291 17.7492C10.3545 18.2007 10.7559 18.4013 11.2475 18.4013ZM20.7492 16.3043C21.1405 16.5652 21.6221 16.4649 21.903 16.0635C23.2274 14.2174 24 11.7592 24 9.19064C24 6.61204 23.2475 4.14381 21.903 2.30769C21.612 1.91639 21.1405 1.81605 20.7492 2.07692C20.3679 2.33779 20.3077 2.82943 20.6087 3.26087C21.7023 4.86622 22.3846 6.97324 22.3846 9.19064C22.3846 11.408 21.7124 13.5351 20.6087 15.1204C20.3177 15.5518 20.3679 16.0435 20.7492 16.3043ZM16.7458 13.5953C17.087 13.8361 17.5786 13.7659 17.8696 13.3645C18.6522 12.311 19.1237 10.7659 19.1237 9.19064C19.1237 7.61539 18.6522 6.08027 17.8696 5.01672C17.5786 4.61539 17.097 4.54515 16.7458 4.77592C16.3144 5.07692 16.2542 5.58863 16.5753 6.02007C17.1572 6.80268 17.5084 7.99666 17.5084 9.19064C17.5084 10.3846 17.1371 11.5786 16.5652 12.3712C16.2642 12.8027 16.3144 13.2943 16.7458 13.5953Z" fill="white"/>
</svg>
