<svg width="20" height="20" viewBox="0 0 20 20" fill="none" xmlns="http://www.w3.org/2000/svg">
<path d="M1.92872 7.50524C1.92872 8.0608 1.5304 8.48008 0.974843 8.48008C0.419287 8.48008 0.0104822 8.05031 0.0104822 7.50524V1.68763C0.0104822 0.618449 0.628931 0 1.69811 0H7.51572C8.08176 0 8.50105 0.398323 8.50105 0.964361C8.50105 1.5304 8.07128 1.91824 7.51572 1.91824H6.6457L2.97694 1.7086L5.8805 4.46541L6.97275 5.54717C7.16143 5.73585 7.25576 5.98742 7.25576 6.27044C7.25576 6.85744 6.81551 7.24528 6.21803 7.24528C5.96646 7.24528 5.73585 7.16143 5.55765 6.97275L4.47589 5.87002L1.71908 2.96646L1.92872 6.62474V7.50524Z" fill="white"/>
<path d="M12.4738 20H18.2914C19.3606 20 19.9895 19.3815 19.9895 18.3124V12.4948C19.9895 11.9497 19.5807 11.5199 19.0147 11.5199C18.4696 11.5199 18.0608 11.9392 18.0608 12.4948V13.3753L18.2809 17.0335L15.5136 14.13L14.4423 13.0273C14.2642 12.8386 14.0231 12.7547 13.7715 12.7547C13.1845 12.7547 12.7338 13.1426 12.7338 13.7296C12.7338 14.0126 12.8386 14.2641 13.0273 14.4528L14.109 15.5346L17.0231 18.2914L13.3543 18.0818H12.4738C11.9182 18.0818 11.4885 18.4696 11.4885 19.0356C11.4885 19.6017 11.9182 20 12.4738 20Z" fill="white"/>
<path d="M7.50524 18.0713C8.0608 18.0713 8.48008 18.4696 8.48008 19.0252C8.48008 19.5807 8.05031 19.9895 7.50524 19.9895H1.68763C0.618449 19.9895 0 19.3711 0 18.3019V12.4843C0 11.9182 0.398322 11.499 0.96436 11.499C1.5304 11.499 1.91824 11.9287 1.91824 12.4843L1.91824 13.3543L1.7086 17.0231L4.46541 14.1195L5.54717 13.0273C5.73585 12.8386 5.98742 12.7442 6.27044 12.7442C6.85744 12.7442 7.24528 13.1845 7.24528 13.782C7.24528 14.0335 7.16143 14.2642 6.97275 14.4423L5.87002 15.5241L2.96646 18.2809L6.62474 18.0713H7.50524Z" fill="white"/>
<path d="M20 7.5262V1.70859C20 0.639412 19.3815 0.0104813 18.3124 0.0104814L12.4948 0.0104816C11.9497 0.0104817 11.5199 0.419287 11.5199 0.985324C11.5199 1.5304 11.9392 1.9392 12.4948 1.9392L13.3753 1.9392L17.0335 1.71908L14.13 4.48637L13.0273 5.55765C12.8386 5.73585 12.7547 5.97694 12.7547 6.22851C12.7547 6.81551 13.1426 7.26625 13.7296 7.26625C14.0126 7.26625 14.2641 7.16142 14.4528 6.97275L15.5346 5.89098L18.2914 2.97694L18.0818 6.6457V7.5262C18.0818 8.08176 18.4696 8.51153 19.0356 8.51153C19.6017 8.51153 20 8.08176 20 7.5262Z" fill="white"/>
</svg>
